<svg xmlns="http://www.w3.org/2000/svg" viewBox="0 0 64 64" fill="none">
  <rect width="64" height="64" rx="14" fill="#2563eb"/>
  <path d="M32 16C23.16 16 16 23.16 16 32s7.16 16 16 16 16-7.16 16-16S40.84 16 32 16zm0 28c-6.63 0-12-5.37-12-12s5.37-12 12-12 12 5.37 12 12-5.37 12-12 12z" fill="white" opacity="0.9"/>
  <circle cx="27" cy="29" r="2.5" fill="white"/>
  <circle cx="37" cy="29" r="2.5" fill="white"/>
  <path d="M26 36c0 0 2 4 6 4s6-4 6-4" stroke="white" stroke-width="2" stroke-linecap="round"/>
</svg>
